<svg width="22" height="22" viewBox="0 0 22 22" fill="none" xmlns="http://www.w3.org/2000/svg">
<path d="M10.8588 0.104319L10.5662 0.393718C10.4255 0.53281 10.4255 0.758273 10.5662 0.897364L19.8031 10.0325C19.955 10.1828 19.8473 10.4397 19.6329 10.4397L0.35954 10.4397C0.161056 10.4397 0 10.599 0 10.7953L0 11.2047C0 11.401 0.161056 11.5603 0.35954 11.5603L19.6318 11.5603C19.8462 11.5603 19.9539 11.8172 19.8019 11.9675L10.565 21.1026C10.4244 21.2417 10.4244 21.4672 10.565 21.6063L10.8577 21.8957C10.9983 22.0348 11.2263 22.0348 11.3669 21.8957L21.7278 11.6489C22.0907 11.29 22.0907 10.7078 21.7278 10.3489L11.3669 0.104319C11.2263 -0.0347729 10.9983 -0.0347729 10.8577 0.104319H10.8588Z" fill="white"/>
</svg>
