<svg width="235" height="40" viewBox="0 0 235 40" fill="none" xmlns="http://www.w3.org/2000/svg">
<path d="M60.7903 18L58.4863 9.6H59.5663L61.3783 16.8L63.4423 9.6H64.5583L66.5623 16.824L68.3983 9.6H69.4783L67.1263 18H65.9743L63.9703 11.052L61.9183 18H60.7903ZM70.7956 18V9.6H75.9916V10.428H71.8036V13.356H75.6316V14.172H71.8036V17.172H75.9916V18H70.7956ZM77.1608 18L80.2568 9.6H81.3248L84.4088 18H83.3408L80.7848 10.86L78.2168 18H77.1608ZM78.5768 15.84L78.8648 15.024H82.6688L82.9568 15.84H78.5768ZM87.1494 18L83.9934 9.6H85.0854L87.7374 16.932L90.4134 9.6H91.4814L88.3254 18H87.1494ZM94.8527 18V14.808L92.1167 9.6H93.2567L95.5127 14.148H95.2127L97.4567 9.6H98.5847L95.8607 14.808V18H94.8527Z" fill="#F4F4F4" style="mix-blend-mode:difference"/>
<path d="M133.36 18L136.456 9.6H137.524L140.608 18H139.54L136.984 10.86L134.416 18H133.36ZM134.776 15.84L135.064 15.024H138.868L139.156 15.84H134.776ZM142.001 18V9.6H144.713C145.369 9.6 145.905 9.712 146.321 9.936C146.737 10.152 147.045 10.444 147.245 10.812C147.445 11.18 147.545 11.596 147.545 12.06C147.545 12.508 147.441 12.92 147.233 13.296C147.033 13.672 146.721 13.972 146.297 14.196C145.873 14.42 145.329 14.532 144.665 14.532H143.009V18H142.001ZM146.441 18L144.593 14.244H145.721L147.629 18H146.441ZM143.009 13.74H144.641C145.281 13.74 145.749 13.584 146.045 13.272C146.349 12.96 146.501 12.56 146.501 12.072C146.501 11.576 146.353 11.184 146.057 10.896C145.769 10.6 145.293 10.452 144.629 10.452H143.009V13.74ZM151.202 18V10.428H148.694V9.6H154.718V10.428H152.21V18H151.202ZM156.092 18V9.6H157.1V18H156.092ZM161.701 18.144C161.085 18.144 160.549 18.032 160.093 17.808C159.637 17.584 159.285 17.272 159.037 16.872C158.789 16.472 158.665 16.008 158.665 15.48H159.721C159.721 15.808 159.797 16.112 159.949 16.392C160.101 16.664 160.321 16.884 160.609 17.052C160.905 17.212 161.269 17.292 161.701 17.292C162.077 17.292 162.397 17.232 162.661 17.112C162.933 16.984 163.137 16.812 163.273 16.596C163.417 16.38 163.489 16.136 163.489 15.864C163.489 15.544 163.421 15.284 163.285 15.084C163.149 14.876 162.961 14.708 162.721 14.58C162.489 14.452 162.217 14.34 161.905 14.244C161.593 14.14 161.265 14.028 160.921 13.908C160.241 13.684 159.741 13.404 159.421 13.068C159.109 12.732 158.953 12.296 158.953 11.76C158.953 11.304 159.057 10.904 159.265 10.56C159.481 10.216 159.785 9.948 160.177 9.756C160.577 9.556 161.049 9.456 161.593 9.456C162.129 9.456 162.593 9.556 162.985 9.756C163.385 9.956 163.697 10.232 163.921 10.584C164.145 10.928 164.257 11.328 164.257 11.784H163.201C163.201 11.552 163.141 11.324 163.021 11.1C162.901 10.876 162.717 10.692 162.469 10.548C162.229 10.396 161.925 10.32 161.557 10.32C161.253 10.312 160.981 10.364 160.741 10.476C160.509 10.58 160.325 10.732 160.189 10.932C160.061 11.132 159.997 11.376 159.997 11.664C159.997 11.936 160.053 12.156 160.165 12.324C160.285 12.492 160.453 12.636 160.669 12.756C160.893 12.868 161.153 12.972 161.449 13.068C161.745 13.164 162.073 13.272 162.433 13.392C162.841 13.528 163.201 13.696 163.513 13.896C163.833 14.088 164.081 14.336 164.257 14.64C164.441 14.944 164.533 15.332 164.533 15.804C164.533 16.204 164.425 16.584 164.209 16.944C164.001 17.296 163.689 17.584 163.273 17.808C162.857 18.032 162.333 18.144 161.701 18.144ZM167.863 18V10.428H165.355V9.6H171.379V10.428H168.871V18H167.863ZM172.753 18V9.6H173.761V18H172.753ZM179.286 18.144C178.478 18.144 177.778 17.964 177.186 17.604C176.602 17.236 176.15 16.728 175.83 16.08C175.51 15.424 175.35 14.664 175.35 13.8C175.35 12.936 175.51 12.18 175.83 11.532C176.15 10.876 176.602 10.368 177.186 10.008C177.778 9.64 178.478 9.456 179.286 9.456C180.246 9.456 181.022 9.684 181.614 10.14C182.214 10.596 182.598 11.24 182.766 12.072H181.662C181.526 11.552 181.262 11.136 180.87 10.824C180.486 10.504 179.958 10.344 179.286 10.344C178.702 10.344 178.19 10.484 177.75 10.764C177.31 11.036 176.97 11.432 176.73 11.952C176.498 12.464 176.382 13.08 176.382 13.8C176.382 14.52 176.498 15.14 176.73 15.66C176.97 16.172 177.31 16.568 177.75 16.848C178.19 17.12 178.702 17.256 179.286 17.256C179.958 17.256 180.486 17.104 180.87 16.8C181.262 16.488 181.526 16.076 181.662 15.564H182.766C182.598 16.372 182.214 17.004 181.614 17.46C181.022 17.916 180.246 18.144 179.286 18.144ZM133.912 30V21.6H134.92V30H133.912ZM136.844 30V21.6H137.853L142.329 28.344V21.6H143.337V30H142.329L137.853 23.256V30H136.844ZM147.217 30V22.428H144.709V21.6H150.733V22.428H148.225V30H147.217ZM152.096 30V21.6H157.292V22.428H153.104V25.356H156.932V26.172H153.104V29.172H157.292V30H152.096ZM159.001 30V21.6H160.009V29.196H163.921V30H159.001ZM165.449 30V21.6H166.457V29.196H170.369V30H165.449ZM171.909 30V21.6H172.917V30H171.909ZM178.442 30.144C177.658 30.144 176.97 29.964 176.378 29.604C175.786 29.236 175.326 28.728 174.998 28.08C174.67 27.432 174.506 26.676 174.506 25.812C174.506 24.956 174.67 24.2 174.998 23.544C175.334 22.888 175.806 22.376 176.414 22.008C177.03 21.64 177.754 21.456 178.586 21.456C179.53 21.456 180.318 21.684 180.95 22.14C181.582 22.588 181.986 23.216 182.162 24.024H180.998C180.886 23.52 180.622 23.12 180.206 22.824C179.79 22.528 179.25 22.38 178.586 22.38C177.97 22.38 177.43 22.52 176.966 22.8C176.51 23.072 176.158 23.464 175.91 23.976C175.662 24.488 175.538 25.1 175.538 25.812C175.538 26.524 175.662 27.14 175.91 27.66C176.158 28.172 176.502 28.564 176.942 28.836C177.39 29.108 177.902 29.244 178.478 29.244C179.374 29.244 180.05 28.98 180.506 28.452C180.962 27.924 181.222 27.208 181.286 26.304H178.862V25.512H182.318V30H181.394L181.31 28.62C181.11 28.948 180.878 29.228 180.614 29.46C180.358 29.684 180.054 29.856 179.702 29.976C179.35 30.088 178.93 30.144 178.442 30.144ZM184.044 30V21.6H189.24V22.428H185.052V25.356H188.88V26.172H185.052V29.172H189.24V30H184.044ZM190.961 30V21.6H191.969L196.445 28.344V21.6H197.453V30H196.445L191.969 23.256V30H190.961ZM202.978 30.144C202.17 30.144 201.47 29.964 200.878 29.604C200.294 29.236 199.842 28.728 199.522 28.08C199.202 27.424 199.042 26.664 199.042 25.8C199.042 24.936 199.202 24.18 199.522 23.532C199.842 22.876 200.294 22.368 200.878 22.008C201.47 21.64 202.17 21.456 202.978 21.456C203.938 21.456 204.714 21.684 205.306 22.14C205.906 22.596 206.29 23.24 206.458 24.072H205.354C205.218 23.552 204.954 23.136 204.562 22.824C204.178 22.504 203.65 22.344 202.978 22.344C202.394 22.344 201.882 22.484 201.442 22.764C201.002 23.036 200.662 23.432 200.422 23.952C200.19 24.464 200.074 25.08 200.074 25.8C200.074 26.52 200.19 27.14 200.422 27.66C200.662 28.172 201.002 28.568 201.442 28.848C201.882 29.12 202.394 29.256 202.978 29.256C203.65 29.256 204.178 29.104 204.562 28.8C204.954 28.488 205.218 28.076 205.354 27.564H206.458C206.29 28.372 205.906 29.004 205.306 29.46C204.714 29.916 203.938 30.144 202.978 30.144ZM208.087 30V21.6H213.283V22.428H209.095V25.356H212.923V26.172H209.095V29.172H213.283V30H208.087Z" fill="#F4F4F4" style="mix-blend-mode:difference"/>
<path d="M116 -3.80576e-05L116 40" stroke="#F4F4F4" style="mix-blend-mode:difference"/>
<path d="M11.7679 0H0V26.1767H11.7679V0Z" fill="#F4F4F4" style="mix-blend-mode:difference"/>
<path d="M20.3254 26.1818H8.55762V40.0019H20.3254V26.1818Z" fill="#F4F4F4" style="mix-blend-mode:difference"/>
<path d="M37.4424 26.1818H25.6746V40.0019H37.4424V26.1818Z" fill="#F4F4F4" style="mix-blend-mode:difference"/>
<path d="M28.8848 0H17.1169V26.1767H28.8848V0Z" fill="#F4F4F4" style="mix-blend-mode:difference"/>
<path d="M46 0H34.2322V26.1767H46V0Z" fill="#F4F4F4" style="mix-blend-mode:difference"/>
</svg>
